<svg width="24" height="24" viewBox="0 0 24 24" fill="none" xmlns="http://www.w3.org/2000/svg">
<path fill-rule="evenodd" clip-rule="evenodd" d="M4 0C1.79086 0 0 1.79086 0 4V20C0 22.2091 1.79086 24 4 24H20C22.2091 24 24 22.2091 24 20V4C24 1.79086 22.2091 0 20 0H4ZM18.8536 7.35355C19.0488 7.15829 19.0488 6.84171 18.8536 6.64645C18.6583 6.45118 18.3417 6.45118 18.1464 6.64645L9 15.7929L5.85355 12.6464C5.65829 12.4512 5.34171 12.4512 5.14645 12.6464C4.95118 12.8417 4.95118 13.1583 5.14645 13.3536L8.64645 16.8536C8.84171 17.0488 9.15829 17.0488 9.35355 16.8536L18.8536 7.35355Z" fill="#276EF1"/>
</svg>
