<svg width="80" height="80" fill="none" xmlns="http://www.w3.org/2000/svg"><g clip-path="url(#clip0)"><rect width="80" height="80" rx="8" fill="#101010"/><rect x=".5" y=".5" width="79" height="79" rx="7.5" stroke="#00D0FF" stroke-opacity=".12"/><path d="M80 0L0 80M88 0L8 80M96 0L16 80M104 0L24 80M112 0L32 80M120 0L40 80M128 0L48 80M136 0L56 80M144 0L64 80M72 0L-8 80M64 0l-80 80M56 0l-80 80M48 0l-80 80M40 0l-80 80M32 0l-80 80M24 0l-80 80M16 0l-80 80" stroke="#00D0FF" stroke-opacity=".12"/></g><defs><clipPath id="clip0"><rect width="80" height="80" rx="8" fill="#fff"/></clipPath></defs></svg>